<?xml version="1.0" encoding="UTF-8" standalone="no"?>
<svg width="228px" height="49px" viewBox="0 0 228 49" version="1.1" xmlns="http://www.w3.org/2000/svg" xmlns:xlink="http://www.w3.org/1999/xlink">
    <!-- Generator: Sketch Beta 42 (36644) - http://www.bohemiancoding.com/sketch -->
    <title>redkix-wordmark</title>
    <desc>Created with Sketch Beta.</desc>
    <defs>
        <linearGradient x1="100%" y1="0%" x2="0%" y2="100%" id="linearGradient-1">
            <stop stop-color="#CA26A0" offset="0%"></stop>
            <stop stop-color="#C7192E" offset="100%"></stop>
        </linearGradient>
    </defs>
    <g id="Sign-In-&amp;-Onboarding" stroke="none" stroke-width="1" fill="none" fill-rule="evenodd">
        <g id="Sign-In" transform="translate(-164.000000, -110.000000)" fill-rule="nonzero">
            <g id="redkix-wordmark" transform="translate(164.000000, 110.000000)">
                <polyline id="Shape" fill="#131326" points="45 0.4 45 48.1 78 48.1 78 38.6 55.5 38.6 55.5 29 76.1 29 76.1 19.6 55.5 19.6 55.5 10 77.6 10 77.6 0.4"></polyline>
                <path d="M28.1,29.7 C33.2,27.5 36.6,22.2 36.6,16.1 C36.6,11.7 35,8 31.8,4.9 C28.7,1.8 24.8,0.3 20.4,0.3 L0.4,0.3 L0.4,48 L10.9,48 L10.9,32.3 L17.8,32.3 L18,32.3 L27.9,48.2 L39.8,48.2 L28.1,29.7 Z M19.3,22.9 L11,22.9 L11,10 L20.2,10 C23.6,10 26.2,12.7 26.2,16.3 C26.1,20.3 23.4,22.9 19.3,22.9 Z" id="Shape" fill="#131326"></path>
                <path d="M120.1,7.1 C115.7,2.7 109.5,0.5 101.4,0.5 L83.3,0.5 L83.3,48.2 L101.4,48.2 C109.5,48.2 115.8,46.1 120.1,41.8 C124.5,37.5 126.7,31.7 126.7,24.5 C126.7,17.2 124.5,11.5 120.1,7.1 Z M100.8,38.6 L93.9,38.6 L93.9,10 L100.7,10 C106.4,10 110.3,11.3 112.6,13.8 C114.9,16.3 116.1,19.9 116.1,24.3 C116.1,33.1 112,38.6 100.8,38.6 Z" id="Shape" fill="#131326"></path>
                <g id="Group" transform="translate(167.000000, 0.000000)" fill="#131326">
                    <rect id="Rectangle-path" x="0.4" y="0.4" width="10.5" height="47.7"></rect>
                    <polygon id="Shape" points="44.8 23.7 59.7 0.4 48 0.4 38.4 15.6 28.8 0.4 17 0.4 31.9 23.6 16.2 48.1 27.7 48.1 38.3 31.6 49 48.1 60.7 48.1"></polygon>
                </g>
                <path d="M151.6,0.4 C151,10.8 142.4,19 132,19 L132,29.5 C142.5,29.5 151,37.8 151.6,48.1 L162.1,48.1 C161.8,38.2 156.6,29.5 149,24.3 C156.7,19 161.8,10.3 162.1,0.5" id="Shape" fill="url(#linearGradient-1)"></path>
            </g>
        </g>
    </g>
</svg>